<?xml version="1.0" encoding="UTF-8"?>
<!DOCTYPE svg PUBLIC "-//W3C//DTD SVG 1.1//EN" "http://www.w3.org/Graphics/SVG/1.1/DTD/svg11.dtd">
<!-- Creator: CorelDRAW 2020 (64-Bit) -->
<svg xmlns="http://www.w3.org/2000/svg" xml:space="preserve" width="21.056mm" height="22.027mm" version="1.1" style="shape-rendering:geometricPrecision; text-rendering:geometricPrecision; image-rendering:optimizeQuality; fill-rule:evenodd; clip-rule:evenodd"
     viewBox="0 0 2105.6 2202.7"
     xmlns:xlink="http://www.w3.org/1999/xlink"
     xmlns:xodm="http://www.corel.com/coreldraw/odm/2003">
 <defs>
  <style type="text/css">
   <![CDATA[
    .fil0 {fill:#e2b714}
   ]]>
  </style>
 </defs>
    <g id="Layer_x0020_1">
  <metadata id="CorelCorpID_0Corel-Layer"/>
        <g id="_362765040">
   <polygon class="fil0" points="499.34,1731.06 1595.2,1731.06 1595.2,2210.47 499.34,2210.47 "/>
            <path class="fil0" d="M-5.54 1970.77l0 -0.02 0 -239.72 0 -180.84 0 -391.27 480.12 277.63 0 113.64 0 180.84 0 239.74 0 239.68 -240.41 0c-131.85,0 -239.7,-107.84 -239.71,-239.68z"/>
            <path class="fil0" d="M1619.96 1731.06l0 -180.85 480.12 0 0 180.85 0 239.71c0,131.85 -107.85,239.7 -239.71,239.7l-240.41 0 0 -479.41z"/>
            <polygon class="fil0" points="1668.55,331.13 1454.7,490.98 1333.21,38.98 "/>
            <polygon class="fil0" points="915.34,429.4 915.03,429.49 1051.45,936.99 1465.7,627.27 1299.18,7.8 885.2,317.26 "/>
            <polygon class="fil0" points="1389.26,1314.73 1389.31,1314.81 1360.16,1336.59 908.03,1075.14 951.02,1043 950.96,1042.93 1393.99,711.76 1472.57,653.03 1606.49,1152.34 "/>
            <path class="fil0" d="M816.97 1051.09l207.53 120 207.47 119.97 106.55 61.62 -100.1 74.81 -175.4 131.1c-25.8,22.76 -56,39.42 -88.24,49.35l-2.01 0.61 -2.2 0.65 -4.14 1.17 -0.12 0.02c-16.13,4.36 -32.58,7 -49.07,7.94l-1.2 0.06 -4.3 0.2 -1.5 0.03 -4.18 0.08 -1.13 0.01 -4.37 -0.01 -0.43 0 -3.95 -0.09 -0.52 -0.02 -3.57 -0.15 -2.39 -0.13 -2.58 -0.16 -2.78 -0.2 -3.56 -0.32 -1.98 -0.18 -3.36 -0.39 -2.19 -0.26 -2.74 -0.36c-27.31,-3.76 -53.98,-12.17 -78.68,-25.04l-18.19 -10.51c-2.49,-1.59 -4.94,-3.23 -7.38,-4.92l-172.1 -99.51 0 0.63 -599.7 -346.77 0 -87.76 12.43 -9.15 341.78 -253.5 468.49 270.89 -0.19 0.29z"/>
  </g>
 </g>
</svg>
